Coordinates
version=1
nRows=60
nColumns=12
inDegrees=yes

Units are S.I. units (second, meters, Newtons, ...)
Angles are in degrees

endheader
time	SC_y	SC_z	SC_x	AC_y	AC_z	AC_x	GH_y	GH_z	GH_yy	EL_x	PS_y
       0.0              -56.78          38.51          63.51          32.72         -9.188        -0.7902         -157.1          28.53          80.51          102.4          48.82
   0.02269              -56.77          38.51           63.5          32.72         -9.186        -0.7927         -157.0          28.53           80.5          102.4          48.82
   0.04537              -56.76          38.51          63.49          32.72         -9.184        -0.7954         -157.0          28.53           80.5          102.3          48.82
   0.06806              -56.76           38.5          63.48          32.72         -9.182        -0.7983         -157.0          28.52          80.49          102.3          48.82
   0.09075              -56.75           38.5          63.47          32.72         -9.179        -0.8013         -157.0          28.52          80.49          102.3          48.82
    0.1134              -56.74          38.49          63.46          32.72         -9.176        -0.8046         -157.0          28.52          80.48          102.3          48.83
    0.1361              -56.73          38.49          63.45          32.72         -9.174         -0.808         -156.9          28.52          80.47          102.3          48.83
    0.1588              -56.72          38.48          63.44          32.72          -9.17        -0.8117         -156.9          28.51          80.46          102.3          48.83
    0.1815              -56.71          38.48          63.43          32.72         -9.167        -0.8157         -156.9          28.51          80.45          102.3          48.83
    0.2042               -56.7          38.47          63.42          32.72         -9.164        -0.8199         -156.8          28.51          80.44          102.2          48.84
    0.2269              -56.69          38.46           63.4          32.72          -9.16        -0.8245         -156.8           28.5          80.43          102.2          48.84
    0.2496              -56.67          38.46          63.39          32.72         -9.156        -0.8294         -156.8           28.5          80.42          102.2          48.84
    0.2722              -56.66          38.45          63.37          32.72         -9.151        -0.8347         -156.7           28.5          80.41          102.2          48.85
    0.2949              -56.65          38.44          63.35          32.72         -9.146        -0.8404         -156.7          28.49           80.4          102.1          48.85
    0.3176              -56.63          38.43          63.34          32.72         -9.141        -0.8466         -156.7          28.49          80.38          102.1          48.86
    0.3403              -56.61          38.42          63.32          32.72         -9.136        -0.8534         -156.6          28.48          80.37          102.1          48.86
     0.363              -56.59          38.41          63.29          32.72          -9.13        -0.8607         -156.6          28.48          80.35          102.0          48.87
    0.3857              -56.57           38.4          63.27          32.72         -9.123        -0.8686         -156.5          28.47          80.33          102.0          48.87
    0.4084              -56.55          38.38          63.24          32.71         -9.116        -0.8773         -156.5          28.46          80.31          102.0          48.88
     0.431              -56.53          38.37          63.21          32.71         -9.108        -0.8868         -156.4          28.46          80.29          101.9          48.89
    0.4537               -56.5          38.35          63.18          32.71         -9.099        -0.8972         -156.3          28.45          80.26          101.9          48.89
    0.4764              -56.47          38.34          63.15          32.71         -9.089        -0.9087         -156.2          28.44          80.24          101.8           48.9
    0.4991              -56.44          38.32          63.11          32.71         -9.079        -0.9214         -156.1          28.43          80.21          101.8          48.91
    0.5218               -56.4           38.3          63.06          32.71         -9.067        -0.9355         -156.1          28.42          80.18          101.7          48.92
    0.5445              -56.36          38.27          63.02          32.71         -9.054        -0.9511         -155.9          28.41          80.14          101.6          48.93
    0.5672              -56.31          38.25          62.96           32.7         -9.039        -0.9686         -155.8           28.4           80.1          101.5          48.95
    0.5899              -56.26          38.22           62.9           32.7         -9.023        -0.9881         -155.7          28.38          80.06          101.5          48.96
    0.6125               -56.2          38.18          62.84           32.7         -9.005          -1.01         -155.5          28.37          80.01          101.3          48.98
    0.6352              -56.14          38.15          62.76           32.7         -8.984         -1.035         -155.4          28.35          79.95          101.2           49.0
    0.6579              -56.07          38.11          62.67          32.69          -8.96         -1.063         -155.2          28.33          79.88          101.1          49.02
    0.6806              -55.98          38.06          62.57          32.69         -8.933         -1.095         -154.9           28.3          79.81          101.0          49.04
    0.7033              -55.89           38.0          62.46          32.68         -8.903         -1.132         -154.7          28.28          79.73          100.8          49.07
     0.726              -55.78          37.94          62.33          32.68         -8.867         -1.175         -154.4          28.24          79.63          100.6           49.1
    0.7487              -55.65          37.86          62.18          32.67         -8.826         -1.224         -154.1          28.21          79.51          100.4          49.14
    0.7713               -55.5          37.78           62.0          32.67         -8.777         -1.282         -153.7          28.16          79.38          100.1          49.18
     0.794              -55.32          37.67          61.79          32.66          -8.72         -1.351         -153.2          28.11          79.22          99.77          49.23
    0.8167              -55.11          37.55          61.54          32.65         -8.652         -1.432         -152.6          28.05          79.04          99.39          49.29
    0.8394              -54.85          37.41          61.25          32.64         -8.571         -1.529         -152.0          27.98          78.81          98.94          49.36
    0.8621              -54.55          37.23          60.89          32.62         -8.472         -1.647         -151.1          27.89          78.54           98.4          49.45
    0.8848              -54.17          37.01          60.45          32.61         -8.352         -1.791         -150.1          27.79          78.21          97.73          49.55
    0.9075              -53.71          36.75           59.9          32.58         -8.204         -1.969         -148.9          27.65           77.8          96.91          49.68
    0.9302              -53.13          36.42          59.22          32.56         -8.019          -2.19         -147.4          27.49           77.3          95.88          49.85
    0.9528              -52.41           36.0          58.37          32.52         -7.786         -2.469         -145.5          27.28          76.65          94.59          50.05
    0.9755              -51.48          35.47          57.29          32.48         -7.489         -2.824         -143.0          27.02          75.84          92.94          50.32
    0.9982               -50.3          34.79           55.9          32.43          -7.11         -3.278         -139.9          26.68           74.8          90.84          50.65
     1.021              -48.79          33.91          54.11          32.36         -6.623          -3.86         -135.9          26.25          73.46          88.14          51.08
     1.044              -46.85           32.8          51.84          32.27         -6.002         -4.605         -130.7          25.69          71.75          84.69          51.63
     1.066              -44.41           31.4          48.98          32.16          -5.22          -5.54         -124.3           25.0           69.6          80.35          52.32
     1.089              -41.45          29.69          45.49          32.02         -4.267          -6.68         -116.4          24.15          66.98          75.07          53.16
     1.112              -38.01          27.71          41.44          31.86         -3.163         -8.002         -107.3          23.17          63.95          68.94          54.13
     1.134              -34.28          25.57          37.06          31.69         -1.968         -9.433          -97.4          22.11          60.66          62.31          55.19
     1.157              -30.56          23.42          32.69          31.52        -0.7719         -10.86         -87.52          21.04          57.37          55.68          56.24
      1.18              -27.12          21.44          28.64          31.37         0.3323         -12.19          -78.4          20.06          54.34          49.55          57.22
     1.202              -24.15          19.73          25.15          31.23          1.285         -13.33         -70.53          19.21          51.72          44.26          58.06
     1.225              -21.72          18.33          22.29          31.12          2.067         -14.26         -64.07          18.52          49.57          39.93          58.75
     1.248              -19.78          17.22          20.01          31.03          2.688         -15.01         -58.94          17.96          47.86          36.48           59.3
      1.27              -18.26          16.35          18.23          30.96          3.175         -15.59         -54.92          17.53          46.52          33.78          59.73
     1.293              -17.08          15.67          16.84          30.91          3.554         -16.04         -51.78          17.19          45.48          31.67          60.06
     1.316              -16.16          15.13          15.76          30.86          3.851          -16.4         -49.34          16.93          44.67          30.03          60.32
     1.339              -15.43          14.72           14.9          30.83          4.084         -16.68         -47.41          16.72          44.03          28.74          60.53
